<mxfile host="app.diagrams.net" modified="2024-04-15T00:37:10.320Z" agent="Mozilla/5.0 (Windows NT 10.0; Win64; x64) AppleWebKit/537.36 (KHTML, like Gecko) Chrome/123.0.0.0 Safari/537.36" etag="P99Zc8KE-anzhyPrT4BO" version="24.2.5" type="device">
  <diagram name="PÃ¡gina-1" id="hoCcCU50sslhHCYuK-D2">
    <mxGraphModel dx="1050" dy="565" grid="1" gridSize="10" guides="1" tooltips="1" connect="1" arrows="1" fold="1" page="1" pageScale="1" pageWidth="1169" pageHeight="827" math="0" shadow="0">
      <root>
        <mxCell id="0" />
        <mxCell id="1" parent="0" />
        <mxCell id="7wKDv1PMb04UnjGhnQSh-2" value="Resultado" style="whiteSpace=wrap;html=1;align=center;" vertex="1" parent="1">
          <mxGeometry x="350" y="380" width="100" height="40" as="geometry" />
        </mxCell>
        <mxCell id="7wKDv1PMb04UnjGhnQSh-5" value="Jogador" style="whiteSpace=wrap;html=1;align=center;" vertex="1" parent="1">
          <mxGeometry x="350" y="200" width="100" height="40" as="geometry" />
        </mxCell>
        <mxCell id="7wKDv1PMb04UnjGhnQSh-6" value="Time" style="whiteSpace=wrap;html=1;align=center;" vertex="1" parent="1">
          <mxGeometry x="200" y="290" width="100" height="40" as="geometry" />
        </mxCell>
        <mxCell id="7wKDv1PMb04UnjGhnQSh-7" value="ID_Time" style="ellipse;whiteSpace=wrap;html=1;align=center;fontStyle=4;" vertex="1" parent="1">
          <mxGeometry x="20" y="360" width="100" height="40" as="geometry" />
        </mxCell>
        <mxCell id="7wKDv1PMb04UnjGhnQSh-10" value="Posicao" style="ellipse;whiteSpace=wrap;html=1;align=center;" vertex="1" parent="1">
          <mxGeometry x="440" y="80" width="100" height="40" as="geometry" />
        </mxCell>
        <mxCell id="7wKDv1PMb04UnjGhnQSh-11" value="Nome" style="ellipse;whiteSpace=wrap;html=1;align=center;" vertex="1" parent="1">
          <mxGeometry x="20" y="290" width="100" height="40" as="geometry" />
        </mxCell>
        <mxCell id="7wKDv1PMb04UnjGhnQSh-12" value="Tecnico" style="ellipse;whiteSpace=wrap;html=1;align=center;" vertex="1" parent="1">
          <mxGeometry x="20" y="220" width="100" height="40" as="geometry" />
        </mxCell>
        <mxCell id="7wKDv1PMb04UnjGhnQSh-13" value="ID_Time" style="ellipse;whiteSpace=wrap;html=1;align=center;" vertex="1" parent="1">
          <mxGeometry x="260" y="80" width="100" height="40" as="geometry" />
        </mxCell>
        <mxCell id="7wKDv1PMb04UnjGhnQSh-14" value="Nome" style="ellipse;whiteSpace=wrap;html=1;align=center;" vertex="1" parent="1">
          <mxGeometry x="440" y="140" width="100" height="40" as="geometry" />
        </mxCell>
        <mxCell id="7wKDv1PMb04UnjGhnQSh-15" value="ID_Jogador" style="ellipse;whiteSpace=wrap;html=1;align=center;fontStyle=4;" vertex="1" parent="1">
          <mxGeometry x="260" y="140" width="100" height="40" as="geometry" />
        </mxCell>
        <mxCell id="7wKDv1PMb04UnjGhnQSh-17" value="" style="endArrow=none;html=1;rounded=0;exitX=1;exitY=0.5;exitDx=0;exitDy=0;entryX=0;entryY=0.5;entryDx=0;entryDy=0;" edge="1" parent="1" source="7wKDv1PMb04UnjGhnQSh-7" target="7wKDv1PMb04UnjGhnQSh-6">
          <mxGeometry relative="1" as="geometry">
            <mxPoint x="190" y="399" as="sourcePoint" />
            <mxPoint x="350" y="399" as="targetPoint" />
            <Array as="points">
              <mxPoint x="160" y="380" />
            </Array>
          </mxGeometry>
        </mxCell>
        <mxCell id="7wKDv1PMb04UnjGhnQSh-18" value="" style="endArrow=none;html=1;rounded=0;exitX=1;exitY=0.5;exitDx=0;exitDy=0;entryX=0;entryY=0.5;entryDx=0;entryDy=0;" edge="1" parent="1" source="7wKDv1PMb04UnjGhnQSh-11" target="7wKDv1PMb04UnjGhnQSh-6">
          <mxGeometry relative="1" as="geometry">
            <mxPoint x="190" y="239.5" as="sourcePoint" />
            <mxPoint x="350" y="239.5" as="targetPoint" />
          </mxGeometry>
        </mxCell>
        <mxCell id="7wKDv1PMb04UnjGhnQSh-19" value="" style="endArrow=none;html=1;rounded=0;exitX=1;exitY=0.5;exitDx=0;exitDy=0;entryX=0;entryY=0.5;entryDx=0;entryDy=0;" edge="1" parent="1" source="7wKDv1PMb04UnjGhnQSh-12" target="7wKDv1PMb04UnjGhnQSh-6">
          <mxGeometry relative="1" as="geometry">
            <mxPoint x="150" y="239.5" as="sourcePoint" />
            <mxPoint x="190" y="310" as="targetPoint" />
            <Array as="points">
              <mxPoint x="160" y="240" />
            </Array>
          </mxGeometry>
        </mxCell>
        <mxCell id="7wKDv1PMb04UnjGhnQSh-20" value="Jogo" style="shape=rhombus;perimeter=rhombusPerimeter;whiteSpace=wrap;html=1;align=center;" vertex="1" parent="1">
          <mxGeometry x="340" y="280" width="120" height="60" as="geometry" />
        </mxCell>
        <mxCell id="7wKDv1PMb04UnjGhnQSh-21" value="" style="endArrow=none;html=1;rounded=0;exitX=0;exitY=0.5;exitDx=0;exitDy=0;entryX=0.5;entryY=0;entryDx=0;entryDy=0;" edge="1" parent="1" source="7wKDv1PMb04UnjGhnQSh-14" target="7wKDv1PMb04UnjGhnQSh-5">
          <mxGeometry relative="1" as="geometry">
            <mxPoint x="350" y="190" as="sourcePoint" />
            <mxPoint x="510" y="190" as="targetPoint" />
            <Array as="points">
              <mxPoint x="400" y="160" />
            </Array>
          </mxGeometry>
        </mxCell>
        <mxCell id="7wKDv1PMb04UnjGhnQSh-22" value="" style="endArrow=none;html=1;rounded=0;exitX=1;exitY=0.5;exitDx=0;exitDy=0;entryX=0.5;entryY=0;entryDx=0;entryDy=0;" edge="1" parent="1" source="7wKDv1PMb04UnjGhnQSh-15" target="7wKDv1PMb04UnjGhnQSh-5">
          <mxGeometry relative="1" as="geometry">
            <mxPoint x="350" y="190" as="sourcePoint" />
            <mxPoint x="510" y="190" as="targetPoint" />
            <Array as="points">
              <mxPoint x="400" y="160" />
            </Array>
          </mxGeometry>
        </mxCell>
        <mxCell id="7wKDv1PMb04UnjGhnQSh-23" value="" style="endArrow=none;html=1;rounded=0;exitX=0;exitY=0.5;exitDx=0;exitDy=0;entryX=0.5;entryY=0;entryDx=0;entryDy=0;" edge="1" parent="1" source="7wKDv1PMb04UnjGhnQSh-10" target="7wKDv1PMb04UnjGhnQSh-5">
          <mxGeometry relative="1" as="geometry">
            <mxPoint x="350" y="190" as="sourcePoint" />
            <mxPoint x="510" y="190" as="targetPoint" />
            <Array as="points">
              <mxPoint x="400" y="100" />
            </Array>
          </mxGeometry>
        </mxCell>
        <mxCell id="7wKDv1PMb04UnjGhnQSh-24" value="" style="endArrow=none;html=1;rounded=0;exitX=1;exitY=0.5;exitDx=0;exitDy=0;entryX=0.5;entryY=0;entryDx=0;entryDy=0;" edge="1" parent="1" source="7wKDv1PMb04UnjGhnQSh-13" target="7wKDv1PMb04UnjGhnQSh-5">
          <mxGeometry relative="1" as="geometry">
            <mxPoint x="350" y="190" as="sourcePoint" />
            <mxPoint x="510" y="190" as="targetPoint" />
            <Array as="points">
              <mxPoint x="400" y="100" />
            </Array>
          </mxGeometry>
        </mxCell>
        <mxCell id="7wKDv1PMb04UnjGhnQSh-25" value="Local" style="ellipse;whiteSpace=wrap;html=1;align=center;" vertex="1" parent="1">
          <mxGeometry x="560" y="220" width="100" height="40" as="geometry" />
        </mxCell>
        <mxCell id="7wKDv1PMb04UnjGhnQSh-27" value="Data" style="ellipse;whiteSpace=wrap;html=1;align=center;" vertex="1" parent="1">
          <mxGeometry x="560" y="360" width="100" height="40" as="geometry" />
        </mxCell>
        <mxCell id="7wKDv1PMb04UnjGhnQSh-28" value="ID_Jogo" style="ellipse;whiteSpace=wrap;html=1;align=center;fontStyle=4;" vertex="1" parent="1">
          <mxGeometry x="560" y="290" width="100" height="40" as="geometry" />
        </mxCell>
        <mxCell id="7wKDv1PMb04UnjGhnQSh-34" value="" style="endArrow=none;html=1;rounded=0;entryX=0;entryY=0.5;entryDx=0;entryDy=0;exitX=1;exitY=0.5;exitDx=0;exitDy=0;" edge="1" parent="1" source="7wKDv1PMb04UnjGhnQSh-20" target="7wKDv1PMb04UnjGhnQSh-27">
          <mxGeometry relative="1" as="geometry">
            <mxPoint x="600" y="310" as="sourcePoint" />
            <mxPoint x="570" y="290" as="targetPoint" />
            <Array as="points">
              <mxPoint x="520" y="380" />
            </Array>
          </mxGeometry>
        </mxCell>
        <mxCell id="7wKDv1PMb04UnjGhnQSh-36" value="" style="endArrow=none;html=1;rounded=0;entryX=0;entryY=0.5;entryDx=0;entryDy=0;exitX=1;exitY=0.5;exitDx=0;exitDy=0;" edge="1" parent="1" source="7wKDv1PMb04UnjGhnQSh-20" target="7wKDv1PMb04UnjGhnQSh-25">
          <mxGeometry relative="1" as="geometry">
            <mxPoint x="600" y="310" as="sourcePoint" />
            <mxPoint x="570" y="290" as="targetPoint" />
            <Array as="points">
              <mxPoint x="520" y="240" />
            </Array>
          </mxGeometry>
        </mxCell>
        <mxCell id="7wKDv1PMb04UnjGhnQSh-37" value="ID_Jogo" style="ellipse;whiteSpace=wrap;html=1;align=center;fontStyle=4;" vertex="1" parent="1">
          <mxGeometry x="460" y="440" width="100" height="40" as="geometry" />
        </mxCell>
        <mxCell id="7wKDv1PMb04UnjGhnQSh-38" value="Vencedor" style="ellipse;whiteSpace=wrap;html=1;align=center;" vertex="1" parent="1">
          <mxGeometry x="350" y="480" width="100" height="40" as="geometry" />
        </mxCell>
        <mxCell id="7wKDv1PMb04UnjGhnQSh-39" value="Perdedor" style="ellipse;whiteSpace=wrap;html=1;align=center;" vertex="1" parent="1">
          <mxGeometry x="240" y="440" width="100" height="40" as="geometry" />
        </mxCell>
        <mxCell id="7wKDv1PMb04UnjGhnQSh-40" value="" style="endArrow=none;html=1;rounded=0;exitX=0.5;exitY=1;exitDx=0;exitDy=0;entryX=0.5;entryY=0;entryDx=0;entryDy=0;" edge="1" parent="1" source="7wKDv1PMb04UnjGhnQSh-2" target="7wKDv1PMb04UnjGhnQSh-38">
          <mxGeometry relative="1" as="geometry">
            <mxPoint x="410" y="290" as="sourcePoint" />
            <mxPoint x="570" y="290" as="targetPoint" />
          </mxGeometry>
        </mxCell>
        <mxCell id="7wKDv1PMb04UnjGhnQSh-41" value="" style="endArrow=none;html=1;rounded=0;exitX=0.5;exitY=1;exitDx=0;exitDy=0;entryX=0;entryY=0.5;entryDx=0;entryDy=0;" edge="1" parent="1" source="7wKDv1PMb04UnjGhnQSh-2" target="7wKDv1PMb04UnjGhnQSh-37">
          <mxGeometry relative="1" as="geometry">
            <mxPoint x="410" y="290" as="sourcePoint" />
            <mxPoint x="570" y="290" as="targetPoint" />
            <Array as="points">
              <mxPoint x="400" y="460" />
            </Array>
          </mxGeometry>
        </mxCell>
        <mxCell id="7wKDv1PMb04UnjGhnQSh-42" value="" style="endArrow=none;html=1;rounded=0;exitX=1;exitY=0.5;exitDx=0;exitDy=0;entryX=0.5;entryY=1;entryDx=0;entryDy=0;" edge="1" parent="1" source="7wKDv1PMb04UnjGhnQSh-39" target="7wKDv1PMb04UnjGhnQSh-2">
          <mxGeometry relative="1" as="geometry">
            <mxPoint x="410" y="290" as="sourcePoint" />
            <mxPoint x="400" y="460" as="targetPoint" />
            <Array as="points">
              <mxPoint x="400" y="460" />
            </Array>
          </mxGeometry>
        </mxCell>
        <mxCell id="7wKDv1PMb04UnjGhnQSh-44" value="" style="endArrow=none;html=1;rounded=0;exitX=0.5;exitY=1;exitDx=0;exitDy=0;entryX=0.5;entryY=0;entryDx=0;entryDy=0;" edge="1" parent="1" source="7wKDv1PMb04UnjGhnQSh-5" target="7wKDv1PMb04UnjGhnQSh-20">
          <mxGeometry relative="1" as="geometry">
            <mxPoint x="410" y="290" as="sourcePoint" />
            <mxPoint x="570" y="290" as="targetPoint" />
          </mxGeometry>
        </mxCell>
        <mxCell id="7wKDv1PMb04UnjGhnQSh-45" value="" style="endArrow=none;html=1;rounded=0;exitX=1;exitY=0.5;exitDx=0;exitDy=0;entryX=0;entryY=0.5;entryDx=0;entryDy=0;" edge="1" parent="1" source="7wKDv1PMb04UnjGhnQSh-6" target="7wKDv1PMb04UnjGhnQSh-20">
          <mxGeometry relative="1" as="geometry">
            <mxPoint x="410" y="290" as="sourcePoint" />
            <mxPoint x="570" y="290" as="targetPoint" />
          </mxGeometry>
        </mxCell>
        <mxCell id="7wKDv1PMb04UnjGhnQSh-46" value="" style="endArrow=none;html=1;rounded=0;exitX=0.5;exitY=0;exitDx=0;exitDy=0;entryX=0.5;entryY=1;entryDx=0;entryDy=0;" edge="1" parent="1" source="7wKDv1PMb04UnjGhnQSh-2" target="7wKDv1PMb04UnjGhnQSh-20">
          <mxGeometry relative="1" as="geometry">
            <mxPoint x="410" y="290" as="sourcePoint" />
            <mxPoint x="570" y="290" as="targetPoint" />
          </mxGeometry>
        </mxCell>
        <mxCell id="7wKDv1PMb04UnjGhnQSh-47" value="" style="endArrow=none;html=1;rounded=0;entryX=0;entryY=0.5;entryDx=0;entryDy=0;exitX=1;exitY=0.5;exitDx=0;exitDy=0;" edge="1" parent="1" source="7wKDv1PMb04UnjGhnQSh-20" target="7wKDv1PMb04UnjGhnQSh-28">
          <mxGeometry relative="1" as="geometry">
            <mxPoint x="470" y="320" as="sourcePoint" />
            <mxPoint x="570" y="250" as="targetPoint" />
            <Array as="points" />
          </mxGeometry>
        </mxCell>
      </root>
    </mxGraphModel>
  </diagram>
</mxfile>
